# xmcd
#
# Track frame offsets: 
#        150
#        16207
#        34715
#        50187
#        68555
#        83990
#        97230
#        111275
#        123420
#        146390
#        164220
#        186220
#
# Disc length: 2814 seconds
#
# Revision: 1
# Processed by: cddbd v1.5.2PL0 Copyright (c) Steve Scherf et al.
# Submitted via: ExactAudioCopy v1.0b1
#
DISCID=ac0afc0c
DTITLE=Johnny Copeland - Honky Tonkin'
DYEAR=1999
DGENRE=Blues
TTITLE0=Houston
TTITLE1=Cut Off My Right Arm
TTITLE2=Down On Bended Knee
TTITLE3=Make My Home Where I Hang My Hat
TTITLE4=Don't Stop By The Creek, Son
TTITLE5=Everybody Wants A Piece Of Me
TTITLE6=Devil's Hand
TTITLE7=Texas Party
TTITLE8=Honky Tonkin'
TTITLE9=Blues Ain't Nothin'
TTITLE10=I Wish I Was Single
TTITLE11=Kasavubu
EXTD=YEAR: 1999
EXTT0=
EXTT1=
EXTT2=
EXTT3=
EXTT4=
EXTT5=
EXTT6=
EXTT7=
EXTT8=
EXTT9=
EXTT10=
EXTT11=
PLAYORDER=
